<mxfile host="app.diagrams.net" modified="2024-06-16T02:13:19.122Z" agent="Mozilla/5.0 (Macintosh; Intel Mac OS X 10_15_7) AppleWebKit/605.1.15 (KHTML, like Gecko) Version/17.4 Safari/605.1.15" etag="cbppNkhxh3eU3SDsJXJx" version="24.5.2" type="github">
  <diagram name="Страница — 1" id="r_9JyjNXRWQOpwnpT5_D">
    <mxGraphModel dx="1354" dy="1497" grid="1" gridSize="6" guides="1" tooltips="1" connect="1" arrows="1" fold="1" page="0" pageScale="1" pageWidth="827" pageHeight="1169" math="0" shadow="0">
      <root>
        <mxCell id="0" />
        <mxCell id="1" parent="0" />
        <mxCell id="pX3wCfQDgXWuH2m1ZuVz-11" style="edgeStyle=none;curved=1;rounded=0;orthogonalLoop=1;jettySize=auto;html=1;exitX=0.5;exitY=1;exitDx=0;exitDy=0;fontSize=12;startSize=8;endSize=8;" edge="1" parent="1">
          <mxGeometry relative="1" as="geometry">
            <mxPoint x="-72" y="-96" as="sourcePoint" />
            <mxPoint x="-72" y="-96" as="targetPoint" />
          </mxGeometry>
        </mxCell>
        <mxCell id="pX3wCfQDgXWuH2m1ZuVz-32" value="" style="endArrow=none;html=1;rounded=0;fontSize=12;startSize=8;endSize=8;curved=1;" edge="1" parent="1">
          <mxGeometry width="50" height="50" relative="1" as="geometry">
            <mxPoint x="-264" y="-96" as="sourcePoint" />
            <mxPoint x="120" y="-96" as="targetPoint" />
          </mxGeometry>
        </mxCell>
        <mxCell id="pX3wCfQDgXWuH2m1ZuVz-33" value="" style="endArrow=none;html=1;rounded=0;fontSize=12;startSize=8;endSize=8;curved=1;" edge="1" parent="1">
          <mxGeometry width="50" height="50" relative="1" as="geometry">
            <mxPoint x="-288" y="-72" as="sourcePoint" />
            <mxPoint x="144" y="-72" as="targetPoint" />
          </mxGeometry>
        </mxCell>
        <mxCell id="pX3wCfQDgXWuH2m1ZuVz-34" value="" style="endArrow=none;html=1;rounded=0;fontSize=12;startSize=8;endSize=8;curved=1;" edge="1" parent="1">
          <mxGeometry width="50" height="50" relative="1" as="geometry">
            <mxPoint x="144" y="-72" as="sourcePoint" />
            <mxPoint x="144" y="-144" as="targetPoint" />
          </mxGeometry>
        </mxCell>
        <mxCell id="pX3wCfQDgXWuH2m1ZuVz-35" value="" style="endArrow=none;html=1;rounded=0;fontSize=12;startSize=8;endSize=8;curved=1;" edge="1" parent="1">
          <mxGeometry width="50" height="50" relative="1" as="geometry">
            <mxPoint x="120" y="-96" as="sourcePoint" />
            <mxPoint x="120" y="-168" as="targetPoint" />
          </mxGeometry>
        </mxCell>
        <mxCell id="pX3wCfQDgXWuH2m1ZuVz-36" value="" style="endArrow=none;html=1;rounded=0;fontSize=12;startSize=8;endSize=8;curved=1;" edge="1" parent="1">
          <mxGeometry width="50" height="50" relative="1" as="geometry">
            <mxPoint x="120" y="-168" as="sourcePoint" />
            <mxPoint x="504" y="-168" as="targetPoint" />
          </mxGeometry>
        </mxCell>
        <mxCell id="pX3wCfQDgXWuH2m1ZuVz-37" value="" style="endArrow=none;html=1;rounded=0;fontSize=12;startSize=8;endSize=8;curved=1;" edge="1" parent="1">
          <mxGeometry width="50" height="50" relative="1" as="geometry">
            <mxPoint x="144" y="-144" as="sourcePoint" />
            <mxPoint x="504" y="-144" as="targetPoint" />
          </mxGeometry>
        </mxCell>
        <mxCell id="pX3wCfQDgXWuH2m1ZuVz-38" value="" style="endArrow=none;html=1;rounded=0;fontSize=12;startSize=8;endSize=8;curved=1;" edge="1" parent="1">
          <mxGeometry width="50" height="50" relative="1" as="geometry">
            <mxPoint x="528" y="-72" as="sourcePoint" />
            <mxPoint x="528" y="-648" as="targetPoint" />
          </mxGeometry>
        </mxCell>
        <mxCell id="pX3wCfQDgXWuH2m1ZuVz-39" value="" style="endArrow=none;html=1;rounded=0;fontSize=12;startSize=8;endSize=8;curved=1;" edge="1" parent="1">
          <mxGeometry width="50" height="50" relative="1" as="geometry">
            <mxPoint x="504" y="-72" as="sourcePoint" />
            <mxPoint x="504" y="-144" as="targetPoint" />
          </mxGeometry>
        </mxCell>
        <mxCell id="pX3wCfQDgXWuH2m1ZuVz-41" value="" style="endArrow=none;html=1;rounded=0;fontSize=12;startSize=8;endSize=8;curved=1;" edge="1" parent="1">
          <mxGeometry width="50" height="50" relative="1" as="geometry">
            <mxPoint x="504" y="-72" as="sourcePoint" />
            <mxPoint x="528" y="-72" as="targetPoint" />
          </mxGeometry>
        </mxCell>
        <mxCell id="pX3wCfQDgXWuH2m1ZuVz-42" value="" style="endArrow=none;html=1;rounded=0;fontSize=12;startSize=8;endSize=8;curved=1;" edge="1" parent="1">
          <mxGeometry width="50" height="50" relative="1" as="geometry">
            <mxPoint x="-288" y="-72" as="sourcePoint" />
            <mxPoint x="-288" y="-336" as="targetPoint" />
          </mxGeometry>
        </mxCell>
        <mxCell id="pX3wCfQDgXWuH2m1ZuVz-43" value="" style="shape=partialRectangle;whiteSpace=wrap;html=1;left=0;right=0;fillColor=none;" vertex="1" parent="1">
          <mxGeometry x="-168" y="-90" width="264" height="12" as="geometry" />
        </mxCell>
        <mxCell id="pX3wCfQDgXWuH2m1ZuVz-44" value="" style="shape=partialRectangle;whiteSpace=wrap;html=1;left=0;right=0;fillColor=none;" vertex="1" parent="1">
          <mxGeometry x="168" y="-162" width="264" height="12" as="geometry" />
        </mxCell>
        <mxCell id="pX3wCfQDgXWuH2m1ZuVz-47" value="" style="endArrow=none;html=1;rounded=0;fontSize=12;startSize=8;endSize=8;curved=1;" edge="1" parent="1">
          <mxGeometry width="50" height="50" relative="1" as="geometry">
            <mxPoint x="-264" y="-96" as="sourcePoint" />
            <mxPoint x="-264" y="-312" as="targetPoint" />
          </mxGeometry>
        </mxCell>
        <mxCell id="pX3wCfQDgXWuH2m1ZuVz-48" value="" style="endArrow=none;html=1;rounded=0;fontSize=12;startSize=8;endSize=8;curved=1;" edge="1" parent="1">
          <mxGeometry width="50" height="50" relative="1" as="geometry">
            <mxPoint x="-240" y="-312" as="sourcePoint" />
            <mxPoint x="-264" y="-312" as="targetPoint" />
          </mxGeometry>
        </mxCell>
        <mxCell id="pX3wCfQDgXWuH2m1ZuVz-49" value="" style="endArrow=none;html=1;rounded=0;fontSize=12;startSize=8;endSize=8;curved=1;" edge="1" parent="1">
          <mxGeometry width="50" height="50" relative="1" as="geometry">
            <mxPoint x="-264" y="-336" as="sourcePoint" />
            <mxPoint x="-288" y="-336" as="targetPoint" />
          </mxGeometry>
        </mxCell>
        <mxCell id="pX3wCfQDgXWuH2m1ZuVz-50" value="" style="endArrow=none;html=1;rounded=0;fontSize=12;startSize=8;endSize=8;curved=1;" edge="1" parent="1">
          <mxGeometry width="50" height="50" relative="1" as="geometry">
            <mxPoint x="-240" y="-312" as="sourcePoint" />
            <mxPoint x="-240" y="-624" as="targetPoint" />
          </mxGeometry>
        </mxCell>
        <mxCell id="pX3wCfQDgXWuH2m1ZuVz-51" value="" style="endArrow=none;html=1;rounded=0;fontSize=12;startSize=8;endSize=8;curved=1;" edge="1" parent="1">
          <mxGeometry width="50" height="50" relative="1" as="geometry">
            <mxPoint x="-264" y="-336" as="sourcePoint" />
            <mxPoint x="-264" y="-648" as="targetPoint" />
          </mxGeometry>
        </mxCell>
        <mxCell id="pX3wCfQDgXWuH2m1ZuVz-52" value="" style="endArrow=none;html=1;rounded=0;fontSize=12;startSize=8;endSize=8;curved=1;" edge="1" parent="1">
          <mxGeometry width="50" height="50" relative="1" as="geometry">
            <mxPoint x="-264" y="-648" as="sourcePoint" />
            <mxPoint x="528" y="-648" as="targetPoint" />
          </mxGeometry>
        </mxCell>
        <mxCell id="pX3wCfQDgXWuH2m1ZuVz-53" value="" style="endArrow=none;html=1;rounded=0;fontSize=12;startSize=8;endSize=8;curved=1;" edge="1" parent="1">
          <mxGeometry width="50" height="50" relative="1" as="geometry">
            <mxPoint x="-240" y="-624" as="sourcePoint" />
            <mxPoint x="504" y="-624" as="targetPoint" />
          </mxGeometry>
        </mxCell>
        <mxCell id="pX3wCfQDgXWuH2m1ZuVz-54" value="" style="endArrow=none;html=1;rounded=0;fontSize=12;startSize=8;endSize=8;curved=1;" edge="1" parent="1">
          <mxGeometry width="50" height="50" relative="1" as="geometry">
            <mxPoint x="504" y="-168" as="sourcePoint" />
            <mxPoint x="504" y="-624" as="targetPoint" />
          </mxGeometry>
        </mxCell>
      </root>
    </mxGraphModel>
  </diagram>
</mxfile>
